<?xml version="1.0" encoding="utf-8"?>
<!-- Generator: Adobe Illustrator 22.0.1, SVG Export Plug-In . SVG Version: 6.00 Build 0)  -->
<svg version="1.1" id="Layer_1" xmlns="http://www.w3.org/2000/svg" xmlns:xlink="http://www.w3.org/1999/xlink" x="0px" y="0px"
	 viewBox="0 0 100 100" style="enable-background:new 0 0 100 100;" xml:space="preserve">
<style type="text/css">
	.st0{fill:#FFFFFF;}
</style>
<g transform="translate(0,-952.36218)">
	<path class="st0" d="M38.6,952.4l-1.3,12.1c-1.7,0.6-3.4,1.3-5,2.1l-9.5-7.6L6.6,975.1l7.6,9.5c-0.8,1.6-1.5,3.3-2.1,5L0,990.9
		v22.9l12.1,1.3c0.6,1.7,1.3,3.4,2.1,5l-7.6,9.5l16.2,16.2l9.5-7.6c1.6,0.8,3.3,1.5,5,2.1l1.3,12.1h22.9l1.3-12.1
		c1.7-0.6,3.4-1.3,5-2.1l9.5,7.6l16.2-16.2l-7.6-9.5c0.8-1.6,1.5-3.3,2.1-5l12.1-1.3v-22.9l-12.1-1.3c-0.6-1.7-1.3-3.4-2.1-5
		l7.6-9.5l-16.2-16.2l-9.5,7.6c-1.6-0.8-3.3-1.5-5-2.1l-1.3-12.1H38.6z M50,979.5c12.6,0,22.9,10.2,22.9,22.9
		c0,12.6-10.2,22.9-22.9,22.9s-22.9-10.2-22.9-22.9C27.1,989.7,37.4,979.5,50,979.5z"/>
</g>
</svg>
